<svg width="300" height="78" viewBox="0 0 300 78" fill="none" xmlns="http://www.w3.org/2000/svg">
<path d="M123.022 10V68.0647" stroke="#29292E" stroke-width="4.52187"/>
<path d="M179 57.5054V21.4946H191.542C195.888 21.4946 199.183 22.3355 201.429 24.0173C203.675 25.6826 204.798 28.1312 204.798 31.363C204.798 33.1272 204.348 34.6854 203.446 36.0374C202.544 37.373 201.289 38.3541 199.683 38.9806C201.52 39.4422 202.962 40.3739 204.012 41.7754C205.077 43.1769 205.61 44.8918 205.61 46.9198C205.61 50.3823 204.511 53.004 202.315 54.7848C200.117 56.5655 196.985 57.4724 192.92 57.5054H179ZM186.378 41.8248V51.5447H192.699C194.436 51.5447 195.789 51.1326 196.756 50.3081C197.74 49.4673 198.232 48.3131 198.232 46.8456C198.232 43.5478 196.535 41.8743 193.141 41.8248H186.378ZM186.378 36.5815H191.838C195.56 36.5155 197.421 35.0233 197.421 32.1049C197.421 30.4726 196.945 29.3019 195.994 28.5928C195.059 27.8674 193.575 27.5047 191.542 27.5047H186.378V36.5815ZM218.546 51.5447H234.212V57.5054H211.168V21.4946H218.546V51.5447ZM266.307 40.3161C266.307 43.8612 265.684 46.9692 264.438 49.6404C263.192 52.3115 261.405 54.3725 259.077 55.8235C256.764 57.2746 254.108 58 251.108 58C248.141 58 245.493 57.2827 243.164 55.8482C240.837 54.4137 239.033 52.3692 237.754 49.7146C236.476 47.0434 235.827 43.9766 235.811 40.514V38.7333C235.811 35.1882 236.442 32.0719 237.705 29.3843C238.984 26.6802 240.779 24.611 243.091 23.1765C245.419 21.7254 248.075 21 251.059 21C254.043 21 256.691 21.7254 259.002 23.1765C261.331 24.611 263.126 26.6802 264.389 29.3843C265.668 32.0719 266.307 35.18 266.307 38.7085V40.3161ZM258.83 38.6838C258.83 34.9079 258.159 32.039 256.814 30.0769C255.47 28.1147 253.551 27.1336 251.059 27.1336C248.583 27.1336 246.674 28.1065 245.329 30.052C243.984 31.9813 243.304 34.8173 243.288 38.5602V40.3161C243.288 43.9931 243.959 46.8456 245.305 48.8736C246.649 50.9017 248.583 51.9158 251.108 51.9158C253.585 51.9158 255.486 50.943 256.814 48.9973C258.142 47.0352 258.814 44.1827 258.83 40.4398V38.6838ZM300 52.9545C298.672 54.554 296.795 55.7988 294.369 56.6892C291.943 57.5631 289.253 58 286.302 58C283.203 58 280.482 57.3239 278.137 55.972C275.809 54.6033 274.005 52.6248 272.726 50.0361C271.464 47.4474 270.816 44.4053 270.783 40.9098V38.4612C270.783 34.8667 271.381 31.7587 272.579 29.137C273.792 26.4989 275.53 24.4872 277.792 23.1023C280.071 21.7008 282.736 21 285.786 21C290.031 21 293.352 22.0223 295.746 24.0668C298.14 26.0949 299.558 29.0546 300 32.9459H292.819C292.492 30.8848 291.762 29.3761 290.631 28.4197C289.516 27.4635 287.975 26.9852 286.007 26.9852C283.499 26.9852 281.589 27.9333 280.277 29.8295C278.965 31.7257 278.301 34.5452 278.284 38.2881V40.5882C278.284 44.3641 278.998 47.2166 280.424 49.1458C281.851 51.0749 283.941 52.0395 286.696 52.0395C289.466 52.0395 291.442 51.4458 292.622 50.2586V44.0508H285.909V38.5849H300V52.9545Z" fill="#04D361"/>
<path d="M39.2289 28C38.2743 43.591 27.9629 47.0557 23.1891 59.7595C21.8334 67.7263 27.9629 74.3881 35.3054 75.543C28.8969 68.464 30.0507 64.2399 36.1737 56.4873C36.1662 61.1704 37.2658 63.205 40.7565 66.0151C46.0095 69.3247 47.411 71.3635 45.3394 75.543C49.1129 75.6372 51.2024 74.2553 54.8869 69.576V75.9279C62.5319 74.2885 67.5564 68.9986 68.0625 63.0317C68.5686 57.0647 64.8479 51.3203 59.8516 48.2106C63.906 58.1185 61.8591 61.3176 53.3593 64.379C57.4979 56.9306 57.8096 52.7586 54.3141 45.3233C49.7995 37.8712 46.4905 34.0813 39.2289 28Z" fill="#04D361"/>
<path d="M11.3645 37.0025L6.79933 76.058H2L6.79933 35.5287L26.3478 18.0275L36.2977 2L59.2408 8.63206L67.6689 31.2916L71.3562 32.7654L72 33.0194V37.0025L63.806 33.6865L55.495 11.3954L54.3725 12.0402L51.499 21.6198L49.367 13.2377L45.1031 10.4743L44.8428 8.63206L38.5217 6.6056L31.9666 16.83L31.1989 28.5282L27.0276 24.5674L26.2204 23.7653L11.3645 37.0025Z" fill="#04D361"/>
<path d="M6.79933 76.058L11.3645 37.0025L27.2843 22.8173L26.1933 23.7384L27.0276 24.5674L31.1989 28.5282L31.9666 16.83L38.5217 6.6056L44.8428 8.63206L45.1031 10.4743L49.367 13.2377L51.499 21.6198L54.3725 12.0402L55.495 11.3954L63.806 33.6865L72 37.0025V33.0194L71.3562 32.7654L67.6689 31.2916L59.2408 8.63206L36.2977 2L26.3478 18.0275L6.79933 35.5287L2 76.058H6.79933Z" stroke="#04D361" stroke-width="3"/>
</svg>
